# xmcd CD database file
#
# Track frame offsets:
#	150
#	21429
#	41932
#	57898
#	86015
#	102812
#	137427
#	156923
#	177526
#	196378
#	220661
#	239856
#
# Disc length: 3427 seconds
#
# Revision: 2
# Processed by: cddbd v1.5.1PL0 Copyright (c) Steve Scherf et al.
# Submitted via: CDex 1.51
#
DISCID=ae0d610c
DTITLE=Hobo Blues Band - Csintalan lányok rossz fiúk
DYEAR=1900
DGENRE=Blues
TTITLE0=A három testor D'Artagnan ellen
TTITLE1=Hobo Blues Band - Barbie baba blues
TTITLE2=Taxi blues
TTITLE3=Nyolc perces szerelem
TTITLE4=Félamerikai vagyok
TTITLE5=Hü asszony blues
TTITLE6=Rossz asszony blues
TTITLE7=Lili báróno
TTITLE8=Hibás térkép
TTITLE9=Veteránok
TTITLE10=Csintalan lányok ,rossz fiúk
TTITLE11=A cirkusz megy tovább
EXTD=
EXTT0=
EXTT1=
EXTT2=
EXTT3=
EXTT4=
EXTT5=
EXTT6=
EXTT7=
EXTT8=
EXTT9=
EXTT10=
EXTT11=
PLAYORDER=
